<svg width="30" height="30" viewBox="0 0 30 30" fill="none" xmlns="http://www.w3.org/2000/svg">
<path fill-rule="evenodd" clip-rule="evenodd" d="M20.3838 17.512C20.5995 18.2109 20.4964 18.9885 20.253 19.7496C19.7016 21.4741 18.8256 22.9314 17.8513 24.1248C17.9606 24.1056 18.0716 24.0813 18.1841 24.0519C19.0074 23.8365 19.8423 23.3635 20.5553 22.8149C20.568 22.8051 20.5806 22.7953 20.5935 22.7854C20.8023 22.6246 21.0301 22.4493 21.2261 22.3281C21.3321 22.2626 21.4996 22.1675 21.7045 22.1063C21.9198 22.0419 22.2718 21.9874 22.6579 22.1424C23.0446 22.2976 23.256 22.5813 23.3546 22.7404C23.4573 22.9061 23.5224 23.0751 23.5639 23.195C23.6424 23.4215 23.7175 23.7179 23.7923 24.0135C23.7961 24.0284 23.7999 24.0433 23.8036 24.0581C23.9151 24.4983 24.0746 24.888 24.2533 25.182C24.44 25.4891 24.5959 25.6088 24.6608 25.6414L24.6635 25.6449C24.665 25.6491 24.666 25.6518 24.7149 25.6286C24.8386 25.5701 25.1245 25.3655 25.5163 24.7665C25.894 24.1886 26.6688 24.0265 27.2465 24.4044C27.8243 24.7821 27.9864 25.5569 27.6086 26.1346C27.0888 26.9298 26.4905 27.5544 25.7838 27.8886C25.0163 28.2516 24.2226 28.221 23.5336 27.873C22.9016 27.5538 22.4408 27.0131 22.1169 26.4803C21.8765 26.0846 21.6818 25.6449 21.5319 25.1925C20.7499 25.7233 19.8203 26.208 18.8168 26.4705C17.8044 26.7353 16.6769 26.781 15.5715 26.3801C14.8713 26.9419 14.1935 27.3855 13.6064 27.7111C13.2254 27.9225 12.8696 28.0914 12.5593 28.2111C12.2981 28.312 11.9236 28.4375 11.5624 28.4375C10.8721 28.4375 10.3124 27.8778 10.3124 27.1875C10.3124 26.5255 10.827 25.9838 11.4779 25.9403C11.497 25.935 11.5545 25.9193 11.6586 25.879C11.8398 25.809 12.0904 25.6931 12.3938 25.5249C12.6983 25.356 13.0429 25.1416 13.4091 24.8816C13.2934 24.7526 13.1805 24.6166 13.0708 24.4735C11.9227 22.9775 11.928 21.3439 12.5255 19.9699C13.0933 18.6644 14.18 17.5946 15.2658 16.903C15.8174 16.5516 16.409 16.2714 16.9909 16.1054C17.5529 15.945 18.2131 15.8608 18.8425 16.0314C19.5458 16.222 20.1393 16.7205 20.3838 17.512ZM15.2983 23.2433C15.217 23.1546 15.1355 23.0576 15.0541 22.9515C14.5355 22.2758 14.5303 21.629 14.8181 20.9669C15.1358 20.2363 15.8198 19.5143 16.609 19.0115C16.995 18.7656 17.3669 18.5979 17.6769 18.5094C17.8031 18.4734 17.9096 18.4533 17.9955 18.4439C17.9838 18.5619 17.9515 18.7389 17.8718 18.9883C17.3201 20.7136 16.3515 22.1343 15.2983 23.2433Z" fill="#0E6DDA"/>
<path d="M6.77817 28.4049C7.43263 28.5588 8.0875 28.151 8.24087 27.4941C8.39423 26.8373 7.98802 26.18 7.33355 26.0261C6.83265 25.9083 6.47624 25.7479 6.18417 25.5388C5.88235 25.3228 5.61639 25.0679 5.39338 24.783C5.07125 24.3714 4.85819 23.8189 4.74248 22.8196C4.62358 21.7926 4.62165 20.4525 4.62165 18.5251V15.3769C4.62165 14.8573 4.6217 14.3788 4.62328 13.936C4.62469 13.5414 4.6254 13.344 4.7332 13.1028C4.84099 12.8615 4.93715 12.7748 5.12948 12.6013C5.70188 12.085 6.46004 11.7706 7.2916 11.7706C7.47552 11.7706 7.75552 11.7826 7.97752 11.7929C7.97752 11.7929 8.38192 11.8119 8.59207 11.8163C9.06718 11.8261 9.6216 11.8111 10.1568 11.6677C11.1993 11.3884 12.0135 10.5741 12.2928 9.53167C12.4362 8.99648 12.4513 8.44206 12.4414 7.96695C12.437 7.75676 12.418 7.3524 12.418 7.3524C12.4077 7.1304 12.3958 6.8504 12.3958 6.66649C12.3958 5.84651 12.7014 5.09791 13.205 4.5284C13.3776 4.33305 13.464 4.23536 13.7065 4.12509C13.9489 4.0148 14.1469 4.01339 14.5428 4.01055C15.1438 4.00625 15.8155 4.00559 16.5714 4.00559C18.8651 4.00559 19.696 4.02341 20.3228 4.24697C21.4101 4.63489 22.2454 5.44659 22.6358 6.4476C22.7343 6.7 22.8031 7.03031 22.84 7.59885C22.8776 8.17802 22.8783 8.91695 22.8783 9.97996V17.4713C22.8783 18.146 23.4231 18.6929 24.0954 18.6929C24.7675 18.6929 25.3124 18.146 25.3124 17.4713V9.93882C25.3124 8.92666 25.3125 8.10799 25.2691 7.44002C25.2245 6.75239 25.1303 6.141 24.9025 5.5571C24.2443 3.8692 22.862 2.55991 21.1379 1.9449C20.0623 1.56121 18.7693 1.56169 16.8273 1.56237L16.2739 1.56241C12.7266 1.56195 10.6159 1.56167 8.88574 2.17885C6.10739 3.16994 3.8934 5.2746 2.84191 7.97086C2.4919 8.86836 2.33656 9.83288 2.26135 10.9916C2.18744 12.1305 2.18744 13.5378 2.18744 15.3335V18.6005C2.18741 20.4345 2.18739 21.9171 2.32454 23.1016C2.46678 24.33 2.76958 25.3856 3.47919 26.2923C3.8474 26.7626 4.28259 27.1784 4.77055 27.5278C5.37207 27.9584 6.03668 28.2304 6.77817 28.4049Z" fill="#0E6DDA"/>
</svg>
