<svg width="30" height="30" viewBox="0 0 30 30" fill="none" xmlns="http://www.w3.org/2000/svg">
<path d="M25.9375 21.9366V19.0106C25.9375 18.5505 25.5919 18.1686 25.1436 18.0902C23.3374 17.7744 21.8378 17.0717 21.1063 16.6821C20.8066 16.5226 20.4434 16.5226 20.1438 16.6821C19.4123 17.0717 17.9128 17.7744 16.1064 18.0902C15.6581 18.1686 15.3125 18.5505 15.3125 19.0106V21.9366C15.3125 25.7535 19.1715 27.8354 20.3115 28.3671C20.5126 28.461 20.7374 28.461 20.9385 28.3671C22.0785 27.8354 25.9375 25.7535 25.9375 21.9366Z" fill="#0E6DDA"/>
<path d="M14.4843 1.56263C15.1968 1.56168 15.8274 1.56083 16.4216 1.77166C16.5441 1.81511 16.6643 1.8651 16.7814 1.92144C17.3499 2.19478 17.7953 2.64361 18.2984 3.15068L24.2769 9.16024C24.8611 9.74568 25.3795 10.2653 25.6596 10.945C25.9398 11.6246 25.9386 12.3606 25.9374 13.1898L25.9373 16.703C25.7692 16.634 25.5935 16.5826 25.4128 16.5511C23.8305 16.2744 22.4943 15.6511 21.8406 15.303C21.082 14.899 20.168 14.899 19.4094 15.303C18.7558 15.6511 17.4195 16.2744 15.8373 16.5511C14.6953 16.7508 13.75 17.7378 13.75 19.0106V21.9366C13.75 24.4179 15.0139 26.2726 16.3019 27.5104C16.6595 27.8541 17.028 28.1595 17.3876 28.4278C16.6793 28.4375 15.9138 28.4375 15.0888 28.4375C12.8728 28.4375 10.9088 28.4375 9.50403 28.2478C8.04554 28.0506 6.81753 27.6289 5.84221 26.6485C4.8669 25.6681 4.4474 24.4338 4.25131 22.9676C4.06245 21.5556 4.06248 19.7603 4.0625 17.5328V11.8158C4.06248 9.89874 4.06246 8.35299 4.2053 7.1232C4.3531 5.85075 4.66773 4.76049 5.40851 3.83693C5.68044 3.49791 5.98765 3.1891 6.3249 2.91576C7.24369 2.17113 8.32831 1.85486 9.59418 1.7063C10.8176 1.56271 12.5771 1.5626 14.4843 1.56263Z" fill="#0E6DDA"/>
<path d="M24.2769 9.16101L18.2984 3.15145C17.7953 2.64438 17.3499 2.19555 16.7814 1.92221C16.6643 1.86588 16.5441 1.81588 16.4216 1.77243C16.1604 1.67973 15.892 1.62796 15.6128 1.59912V4.07792V4.0884C15.6128 5.79072 15.6128 6.60036 15.7581 7.68185C15.9094 8.80698 16.233 9.75432 16.9855 10.5067C17.7379 11.2591 18.6851 11.5827 19.8104 11.734C20.894 11.8797 21.7048 11.8807 23.4143 11.8807H25.8903C25.852 11.556 25.7831 11.2454 25.6596 10.9457C25.3796 10.266 24.8611 9.74646 24.2769 9.16101Z" fill="#0E6DDA"/>
</svg>
