<svg width="30" height="30" viewBox="0 0 30 30" fill="none" xmlns="http://www.w3.org/2000/svg">
<path d="M13.2345 1.56269C13.9469 1.56174 14.5775 1.56089 15.1719 1.77172C15.2944 1.81517 15.4144 1.86517 15.5315 1.9215C16.1001 2.19484 16.5454 2.64367 17.0485 3.15074L23.027 9.1603C23.6112 9.74574 24.1297 10.2653 24.4099 10.945C24.6899 11.6247 24.6887 12.3606 24.6875 13.1899L24.6874 17.5327C24.6874 18.0369 24.6874 18.519 24.6851 18.9795C23.4465 18.194 21.8414 17.5001 20 17.5001C17.4036 17.5001 15.277 18.8795 13.9851 19.9504C13.3037 20.5151 12.158 21.7032 11.7467 22.2545C11.0856 23.1404 11.0838 24.3574 11.7463 25.2452L11.7928 25.2969C12.2116 25.7627 13.3297 27.0065 13.9851 27.5499C14.328 27.834 14.7295 28.1397 15.183 28.4359C14.7537 28.4376 14.306 28.4376 13.8391 28.4376C11.6231 28.4376 9.65898 28.4376 8.25419 28.2477C6.79571 28.0506 5.56768 27.629 4.59237 26.6486C3.61706 25.6682 3.19757 24.4339 3.00148 22.9677C2.81261 21.5556 2.81263 19.7602 2.81267 17.5329V11.8159C2.81264 9.8988 2.81263 8.35305 2.95547 7.12326C3.10327 5.85081 3.41789 4.76055 4.15868 3.83699C4.43061 3.49797 4.73782 3.18916 5.07507 2.91584C5.99386 2.17119 7.07848 1.85492 8.34434 1.70636C9.56779 1.56277 11.3273 1.56266 13.2345 1.56269Z" fill="#0E6DDA"/>
<path d="M23.027 9.16108L17.0485 3.15151C16.5454 2.64444 16.1001 2.19561 15.5315 1.92227C15.4144 1.86594 15.2944 1.81594 15.1719 1.77249C14.9105 1.67979 14.6423 1.62802 14.363 1.59918V4.07798V4.08846C14.363 5.79078 14.3629 6.60042 14.5084 7.68191C14.6596 8.80705 14.9833 9.75438 15.7356 10.5068C16.488 11.2592 17.4354 11.5828 18.5605 11.7341C19.6443 11.8798 20.4549 11.8807 22.1644 11.8807H24.6404C24.6021 11.556 24.5333 11.2454 24.4099 10.9458C24.1298 10.2661 23.6113 9.74652 23.027 9.16108Z" fill="#0E6DDA"/>
<path fill-rule="evenodd" clip-rule="evenodd" d="M20 19.0626C17.9477 19.0626 16.1737 20.1657 14.9822 21.1532C14.3732 21.6581 13.8827 22.1607 13.5441 22.5371C13.3744 22.726 12.999 23.1889 12.999 23.1889C12.7507 23.5215 12.7505 23.9781 12.9986 24.3107L13.5441 24.963C13.8827 25.3394 14.3732 25.8421 14.9822 26.3469C16.1737 27.3344 17.9477 28.4376 20 28.4376C22.0522 28.4376 23.8262 27.3344 25.0176 26.3469C25.6266 25.8421 26.1171 25.3394 26.4557 24.963C26.6205 24.78 26.8916 24.446 26.992 24.3224L27.001 24.3112C27.2491 23.9786 27.2495 23.522 27.0014 23.1894L26.9919 23.1777C26.8912 23.0537 26.6202 22.7199 26.4557 22.5371C26.1171 22.1607 25.6266 21.6581 25.0176 21.1532C23.8262 20.1657 22.0522 19.0626 20 19.0626ZM19.9917 21.8751C18.9609 21.8751 18.1251 22.7145 18.1251 23.7501C18.1251 24.7856 18.9609 25.6251 19.9917 25.6251H20.0086C21.0395 25.6251 21.8751 24.7856 21.8751 23.7501C21.8751 22.7145 21.0395 21.8751 20.0086 21.8751H19.9917Z" fill="#0E6DDA"/>
</svg>
